<svg xmlns="http://www.w3.org/2000/svg" viewBox="0 0 152.67 35.34"><defs><style>.cls-1{fill:#605ae0;}.cls-2{fill:#89cc42;}</style></defs><title>logo</title><g id="레이어_2" data-name="레이어 2"><g id="레이어_1-2" data-name="레이어 1"><path class="cls-1" d="M0,34.71V.59H22.3v4c0,1.54-.75,2.17-2.29,2.17H8v8.11H20.21v3.94c0,1.54-.75,2.17-2.28,2.17H8V32a2.94,2.94,0,0,1-3.15,2.76Z"/><path class="cls-1" d="M44.87,34.71H28.37A2.46,2.46,0,0,1,25.61,32V.59h8v28h14V32A2.46,2.46,0,0,1,44.87,34.71Z"/><path class="cls-1" d="M73.91,23.64A12.87,12.87,0,0,1,70.52,32c-2,2.21-4.88,3.31-8.63,3.31A11.63,11.63,0,0,1,49.8,23.6c-.12-1.85-.16-3.86-.16-6s0-4.1.16-5.87a12.3,12.3,0,0,1,3.66-8.43A11.59,11.59,0,0,1,61.89,0a11.16,11.16,0,0,1,8.48,3.39,12.77,12.77,0,0,1,3.54,8.39A83.82,83.82,0,0,1,73.91,23.64Zm-7.68-6.38c0-2.09,0-3.71,0-4.89A9.25,9.25,0,0,0,65,8a3.45,3.45,0,0,0-3.08-1.89c-2.4,0-4.13,2.44-4.33,6.22-.08,1.34-.12,3.15-.12,5.48l.12,5.08c.2,3.78,1.85,6.26,4.33,6.26,2.64,0,3.9-2.12,4.18-6.42C66.19,21.16,66.23,19.31,66.23,17.26Z"/><path class="cls-1" d="M87.58,17.81,91.88.59h6.46L102.71,18a13.6,13.6,0,0,1,.2,1.85,14.82,14.82,0,0,0,.19-1.93L106.85.59h8.27l-7.72,31.8c-.36,1.69-1.77,2.48-3.51,2.48H99.83l-4.45-17.1a14.41,14.41,0,0,0-.27-2c-.12.43-.2,1.65-.32,2.09L91,32.42a3.36,3.36,0,0,1-3.51,2.45H83.41L75.09.59h8.32L87,17.65a19.41,19.41,0,0,1,.24,2.21C87.39,19.42,87.46,18.16,87.58,17.81Z"/><path class="cls-2" d="M134.58,34.71l-1.85-6.15h-9l-1.89,6.15h-8.24L124.89.59h6.62l11.35,34.12ZM128,14.42l-2.49,8.35h5.64l-2.37-8.35c-.11-.43-.23-1.42-.35-1.77C128.28,13,128.08,14,128,14.42Z"/><path class="cls-2" d="M144.67.59h8V32a2.94,2.94,0,0,1-3.15,2.76h-4.85Z"/></g></g></svg>